<svg id="svg8" xmlns="http://www.w3.org/2000/svg" xmlns:xlink="http://www.w3.org/1999/xlink" viewBox="0 0 360.7 729.33"><defs><style>.cls-1,.cls-14{fill:none;}.cls-2{fill:#3f4b5b;}.cls-3{fill:url(#Adsız_degrade);}.cls-4{fill:url(#Adsız_degrade_2);}.cls-5{fill:url(#Adsız_degrade_3);}.cls-6{fill:url(#Adsız_degrade_4);}.cls-7{fill:#c8e1f8;stroke:#3f4b5b;}.cls-12,.cls-14,.cls-7{stroke-linecap:round;}.cls-12,.cls-7{stroke-linejoin:round;}.cls-8{clip-path:url(#clip-path);}.cls-9{fill:#a0b8ce;}.cls-10{fill:#819abb;}.cls-11{stroke:#434343;stroke-width:0.5px;}.cls-12{stroke:#1a1a1a;stroke-width:0.5px;}.cls-13{fill:url(#pattern3129);}.cls-14{stroke:#292929;stroke-miterlimit:15.12;stroke-width:0.15px;}.cls-15{clip-path:url(#clip-path-2);}.cls-16{fill:#fff;}.cls-17{fill:#161616;}.cls-18{fill:#0a0d13;}.cls-19{fill:#091427;}.cls-20{fill:#235a91;fill-opacity:0.56;fill-rule:evenodd;}</style><linearGradient id="Adsız_degrade" x1="-88.08" y1="741.14" x2="-88.08" y2="718.88" gradientTransform="matrix(3.78, 0, 0, -3.78, 688.69, 3019.71)" gradientUnits="userSpaceOnUse"><stop offset="0" stop-color="#81aace"/><stop offset="0.1" stop-color="#b9d2e8"/><stop offset="0.9" stop-color="#b9d2e8"/><stop offset="1" stop-color="#81aace"/></linearGradient><linearGradient id="Adsız_degrade_2" x1="-88.08" y1="741.14" x2="-88.08" y2="727.41" gradientTransform="matrix(3.78, 0, 0, -3.78, 338.17, 3002.23)" xlink:href="#Adsız_degrade"/><linearGradient id="Adsız_degrade_3" x1="-88.08" y1="741.14" x2="-88.08" y2="727.41" gradientTransform="matrix(3.78, 0, 0, -3.78, 338.08, 3072.27)" xlink:href="#Adsız_degrade"/><linearGradient id="Adsız_degrade_4" x1="-88.08" y1="741.14" x2="-88.08" y2="734.23" gradientTransform="matrix(3.78, 0, 0, -3.78, 337.93, 2948.72)" xlink:href="#Adsız_degrade"/><clipPath id="clip-path" transform="translate(-0.15 -0.34)"><rect class="cls-1" x="2.74" y="0.84" width="355.62" height="728.33" rx="55.64"/></clipPath><pattern id="pattern3129" data-name="pattern3129" width="361" height="730" patternTransform="matrix(0.77, 0, 0, -0.77, -73.58, 928.92)" patternUnits="userSpaceOnUse" viewBox="0 0 361 730"><rect class="cls-1" width="361" height="730"/></pattern><clipPath id="clip-path-2" transform="translate(-0.15 -0.34)"><path class="cls-1" d="M155.87,6.8a2.18,2.18,0,0,0,0,4.35h51.26a2.18,2.18,0,0,0,0-4.35Zm0,.15h51.26a2,2,0,1,1,0,4H155.87a2,2,0,0,1,0-4Z"/></clipPath></defs><g id="layer2"><g id="g1506"><path id="rect2415-6-8" class="cls-2" d="M351.57,217.49H360a.81.81,0,0,1,.81.81v84.3a.81.81,0,0,1-.81.81h-8.47a.81.81,0,0,1-.81-.81V218.3A.81.81,0,0,1,351.57,217.49Z" transform="translate(-0.15 -0.34)"/><path id="rect2415-6" class="cls-2" d="M1,200H9.43a.81.81,0,0,1,.81.81v52.06a.81.81,0,0,1-.81.81H1a.81.81,0,0,1-.81-.81V200.82A.81.81,0,0,1,1,200Z" transform="translate(-0.15 -0.34)"/><path id="rect2415-6-0" class="cls-2" d="M1,270.05H9.43a.81.81,0,0,1,.81.81v52.06a.81.81,0,0,1-.81.81H1a.81.81,0,0,1-.81-.81V270.86A.81.81,0,0,1,1,270.05Z" transform="translate(-0.15 -0.34)"/><rect id="rect2415" class="cls-2" y="146.5" width="10.09" height="27.9" rx="0.81"/></g><path id="rect2415-4-9-9" class="cls-3" d="M351.57,218.55H360a.81.81,0,0,1,.81.81v82.5a.81.81,0,0,1-.81.82h-8.47a.81.81,0,0,1-.81-.82v-82.5A.81.81,0,0,1,351.57,218.55Z" transform="translate(-0.15 -0.34)"/><path id="rect2415-4-9" class="cls-4" d="M1.05,201.07H9.52a.81.81,0,0,1,.81.81v50.27a.81.81,0,0,1-.81.81H1.05a.81.81,0,0,1-.81-.81V201.88a.81.81,0,0,1,.81-.81Z" transform="translate(-0.15 -0.34)"/><path id="rect2415-4-9-6" class="cls-5" d="M1,271.1H9.43a.82.82,0,0,1,.81.82v50.26a.81.81,0,0,1-.81.82H1a.81.81,0,0,1-.81-.82V271.92A.82.82,0,0,1,1,271.1Z" transform="translate(-0.15 -0.34)"/><rect id="rect2415-4" class="cls-6" y="147.56" width="10.09" height="26.1" rx="0.81"/><rect id="rect2163" class="cls-7" x="2.59" y="0.5" width="355.62" height="728.33" rx="55.64"/><g class="cls-8"><path id="rect2163-1" class="cls-9" d="M58.38,2.79A53.53,53.53,0,0,0,4.69,56.48v617a53.53,53.53,0,0,0,53.69,53.69H302.71a53.53,53.53,0,0,0,53.69-53.69v-617A53.53,53.53,0,0,0,302.71,2.79Z" transform="translate(-0.15 -0.34)"/></g><path id="rect2172" class="cls-10" d="M281.79.34v12h5V.34ZM2.24,73v5H358.85V73Zm0,580.3v5H358.85v-5Zm72.09,66.06v10.3h5v-10.3Z" transform="translate(-0.15 -0.34)"/><rect id="rect1093" x="149.72" y="4.84" width="63.25" height="5.04"/><path id="rect3540" class="cls-11" d="M59.31,5.43A52.34,52.34,0,0,0,6.86,57.88V672.12a52.34,52.34,0,0,0,52.45,52.45H301.78a52.34,52.34,0,0,0,52.45-52.45V57.88A52.34,52.34,0,0,0,301.78,5.43H213.1a2.3,2.3,0,0,0-2.28,2v.11H152.2a2.31,2.31,0,0,0-2.3-2.06Z" transform="translate(-0.15 -0.34)"/><rect id="rect1030" class="cls-12" x="152.03" y="5.09" width="58.64" height="7.09" rx="2.31"/><g id="g2819"><path id="rect5261" class="cls-13" d="M155.87,6.88h51.25A2.08,2.08,0,0,1,209.21,9h0a2.09,2.09,0,0,1-2.09,2.1H155.87a2.1,2.1,0,0,1-2.1-2.1h0A2.09,2.09,0,0,1,155.87,6.88Z" transform="translate(-0.15 -0.34)"/><path id="rect5261-0" class="cls-14" d="M155.87,6.88a2.09,2.09,0,1,0,0,4.18h51.26a2.09,2.09,0,1,0,0-4.18Z" transform="translate(-0.15 -0.34)"/><g class="cls-15"><g id="g2576"><path id="path999-2" class="cls-16" d="M209.23,9c0,.37-.22.67-.48.67s-.47-.3-.47-.67.21-.67.47-.67S209.23,8.6,209.23,9Z" transform="translate(-0.15 -0.34)"/><path id="path999-2-2" class="cls-16" d="M153.77,9c0,.37.22.67.48.67s.47-.3.47-.67-.21-.67-.47-.67S153.77,8.6,153.77,9Z" transform="translate(-0.15 -0.34)"/></g></g></g><g id="g2170"><circle id="path5263" class="cls-17" cx="134.43" cy="26.26" r="5.72"/><circle id="path5265" class="cls-18" cx="134.43" cy="26.26" r="3.53"/><circle id="path5267" class="cls-19" cx="134.43" cy="26.26" r="2.69"/><path id="path5271" class="cls-20" d="M132.73,24.8c-.32,0-.77.52-.8,1.48s.38,1.47.62,1.47a2.17,2.17,0,0,0,.18-2.95Z" transform="translate(-0.15 -0.34)"/><path id="path5273" class="cls-20" d="M135,24.47c-.5.15-.6,1-.58,1.43s.68,1.68,1.47,1.41a1.39,1.39,0,0,0,.6-1.95C136.18,24.68,135.58,24.2,135,24.47Z" transform="translate(-0.15 -0.34)"/></g></g></svg>