<?xml version="1.0" encoding="utf-8"?>
<!-- Generator: Adobe Illustrator 24.3.0, SVG Export Plug-In . SVG Version: 6.00 Build 0)  -->
<svg version="1.1"
	 id="svg8" xmlns:cc="http://creativecommons.org/ns#" xmlns:dc="http://purl.org/dc/elements/1.1/" xmlns:rdf="http://www.w3.org/1999/02/22-rdf-syntax-ns#" xmlns:svg="http://www.w3.org/2000/svg"
	 xmlns="http://www.w3.org/2000/svg" xmlns:xlink="http://www.w3.org/1999/xlink" x="0px" y="0px" viewBox="0 0 531.7 1022.9"
	 style="enable-background:new 0 0 531.7 1022.9;" xml:space="preserve">
<style type="text/css">
	.st0{fill:none;}
	.st1{fill:url(#SVGID_1_);}
	.st2{fill:url(#SVGID_2_);}
	.st3{fill:url(#SVGID_3_);}
	.st4{fill:url(#SVGID_4_);}
	.st5{fill:url(#SVGID_5_);}
	.st6{fill:url(#SVGID_6_);}
	.st7{fill:url(#SVGID_7_);}
	.st8{fill:url(#SVGID_8_);}
	.st9{fill:url(#SVGID_9_);}
	.st10{fill:url(#SVGID_10_);}
	.st11{fill:url(#SVGID_11_);}
	.st12{fill:url(#SVGID_12_);}
	.st13{fill:url(#SVGID_13_);}
	.st14{fill:url(#SVGID_14_);}
	.st15{fill:#3F4B5B;}
	.st16{fill:url(#rect2415-4-9-9_1_);}
	.st17{fill:url(#rect2415-4-9_1_);}
	.st18{fill:url(#rect2415-4-9-6_1_);}
	.st19{fill:url(#rect2415-4_1_);}
	.st20{fill:#C8E1F8;stroke:#3F4B5B;stroke-width:1;stroke-linecap:round;stroke-linejoin:round;stroke-miterlimit:15.1181;}
	.st21{clip-path:url(#SVGID_16_);fill:#A0B8CE;}
	.st22{fill:#819ABB;}
	.st23{stroke:#434343;stroke-width:0.5;}
	.st24{stroke:#1A1A1A;stroke-width:0.5;stroke-linecap:round;stroke-linejoin:round;stroke-miterlimit:15.1181;}
	.st25{fill:url(#rect5261_1_);}
	.st26{fill:none;stroke:#292929;stroke-width:0.1538;stroke-linecap:round;stroke-miterlimit:15.1181;}
	.st27{clip-path:url(#SVGID_18_);}
	.st28{fill:#FFFFFF;}
	.st29{fill:#161616;}
	.st30{fill:#0A0D13;}
	.st31{fill:#091427;}
	.st32{fill-rule:evenodd;clip-rule:evenodd;fill:#235A91;fill-opacity:0.5561;}
	.st33{fill-rule:evenodd;clip-rule:evenodd;fill:#FFFFFF;}
</style>
<pattern  x="85.4" y="849.5" width="361" height="730" patternUnits="userSpaceOnUse" id="pattern3129" viewBox="0 -730 361 730" style="overflow:visible;">
	<g>
		<rect y="-730" class="st0" width="361" height="730"/>
	</g>
</pattern>
<g>
	<linearGradient id="SVGID_1_" gradientUnits="userSpaceOnUse" x1="51.0807" y1="150.1279" x2="51.0807" y2="98.7178">
		<stop  offset="0.4385" style="stop-color:#000000"/>
		<stop  offset="0.7799" style="stop-color:#858585"/>
		<stop  offset="0.9609" style="stop-color:#CECECE"/>
	</linearGradient>
	<path class="st1" d="M39.8,82.5h22.6v7.1H47.2v9.2h15.1v7.1H47.2v16.5h-7.4V82.5z"/>
	<linearGradient id="SVGID_2_" gradientUnits="userSpaceOnUse" x1="80.6124" y1="149.7152" x2="80.6124" y2="98.4176">
		<stop  offset="0.4385" style="stop-color:#000000"/>
		<stop  offset="0.7799" style="stop-color:#858585"/>
		<stop  offset="0.9609" style="stop-color:#CECECE"/>
	</linearGradient>
	<path class="st2" d="M95,122.4h-7.3v-3.7c-2,2.7-5.1,4.3-9.2,4.3c-7.7,0-12.3-5-12.3-13.7v-19h7.5v18.2c0,5,2.2,8,6.8,8
		c4.1,0,7.1-3.1,7.1-8.7V90.4H95V122.4z"/>
	<linearGradient id="SVGID_3_" gradientUnits="userSpaceOnUse" x1="110.1432" y1="149.4371" x2="110.1432" y2="98.053">
		<stop  offset="0.4385" style="stop-color:#000000"/>
		<stop  offset="0.7799" style="stop-color:#858585"/>
		<stop  offset="0.9609" style="stop-color:#CECECE"/>
	</linearGradient>
	<path class="st3" d="M99.6,90.4h7.3v4.8c1.5-3.2,4.2-4.8,8.2-4.8c2.4,0,4.2,0.5,5.6,1.4l-2.8,7c-1.1-0.7-2.3-1.3-4.4-1.3
		c-4.3,0-6.6,2.3-6.6,7.8v17.1h-7.4V90.4z"/>
	<linearGradient id="SVGID_4_" gradientUnits="userSpaceOnUse" x1="138.2804" y1="148.7558" x2="138.2804" y2="97.6715">
		<stop  offset="0.4385" style="stop-color:#000000"/>
		<stop  offset="0.7799" style="stop-color:#858585"/>
		<stop  offset="0.9609" style="stop-color:#CECECE"/>
	</linearGradient>
	<path class="st4" d="M123.1,82h7.4v23.9l13.6-15.4h8.9l-12.4,13.8l12.8,18.2h-8.3l-9.6-13.8l-5.1,5.6v8.1h-7.4V82z"/>
	<linearGradient id="SVGID_5_" gradientUnits="userSpaceOnUse" x1="168.1676" y1="148.8221" x2="168.1676" y2="97.3044">
		<stop  offset="0.4385" style="stop-color:#000000"/>
		<stop  offset="0.7799" style="stop-color:#858585"/>
		<stop  offset="0.9609" style="stop-color:#CECECE"/>
	</linearGradient>
	<path class="st5" d="M151.4,106.5c0-10.6,7.8-16.7,15.9-16.7c4.2,0,7.9,1.7,10.3,4.5v-3.8h7.4v32h-7.4v-4.2
		c-2.4,3-6.2,4.8-10.4,4.8C159.4,123.1,151.4,117,151.4,106.5z M177.9,106.4c0-5.5-4-9.8-9.6-9.8c-5.5,0-9.7,4.3-9.7,9.8
		c0,5.6,4.2,10,9.7,10C173.9,116.3,177.9,111.9,177.9,106.4z"/>
	<linearGradient id="SVGID_6_" gradientUnits="userSpaceOnUse" x1="204.2062" y1="148.1204" x2="204.2062" y2="96.8295">
		<stop  offset="0.4385" style="stop-color:#000000"/>
		<stop  offset="0.7799" style="stop-color:#858585"/>
		<stop  offset="0.9609" style="stop-color:#CECECE"/>
	</linearGradient>
	<path class="st6" d="M189.4,90.4h7.3v3.9c2.1-2.8,5.4-4.6,9.6-4.6c8,0,12.7,5,12.7,13.7v19h-7.5v-18.2c0-5-2.4-8-7.2-8
		c-4.2,0-7.5,3.1-7.5,8.7v17.6h-7.4V90.4z"/>
	<linearGradient id="SVGID_7_" gradientUnits="userSpaceOnUse" x1="250.7719" y1="147.7769" x2="250.7719" y2="96.4586">
		<stop  offset="0.4385" style="stop-color:#000000"/>
		<stop  offset="0.7799" style="stop-color:#858585"/>
		<stop  offset="0.9609" style="stop-color:#CECECE"/>
	</linearGradient>
	<path class="st7" d="M236.8,82.5h12.6c8.9,0,13.9,3.8,13.9,11.2c0,3.4-1.5,6.1-4.4,7.8c3.7,1.7,5.8,4.8,5.8,9.2
		c0,7.9-5.5,11.8-14.3,11.8h-13.6V82.5z M244.3,89.4v9.1h5.1c4.8,0,6.4-1.9,6.4-4.8c0-3-1.8-4.3-6.4-4.3H244.3z M244.3,105.4v10.2
		h6.1c4.5,0,6.8-1.9,6.8-5.1s-1.6-5.1-7.2-5.1H244.3z"/>
	<linearGradient id="SVGID_8_" gradientUnits="userSpaceOnUse" x1="283.5026" y1="147.4918" x2="283.5026" y2="95.9818">
		<stop  offset="0.4385" style="stop-color:#000000"/>
		<stop  offset="0.7799" style="stop-color:#858585"/>
		<stop  offset="0.9609" style="stop-color:#CECECE"/>
	</linearGradient>
	<path class="st8" d="M267,106.5c0-9.4,7.3-16.7,16.6-16.7c9.5,0,16.5,7,16.5,16.5v2.8h-26c1,4.5,4.6,7.5,9.8,7.5
		c4.2,0,7.3-2.2,8.9-5.6l6.1,3.5c-2.8,5.2-7.7,8.6-14.9,8.6C273.8,123.1,267,115.8,267,106.5z M274.4,102.9h18.2
		c-1.1-4.3-4.4-6.6-9-6.6C279.2,96.3,275.7,98.9,274.4,102.9z"/>
	<linearGradient id="SVGID_9_" gradientUnits="userSpaceOnUse" x1="313.9088" y1="147.1276" x2="313.9088" y2="95.7435">
		<stop  offset="0.4385" style="stop-color:#000000"/>
		<stop  offset="0.7799" style="stop-color:#858585"/>
		<stop  offset="0.9609" style="stop-color:#CECECE"/>
	</linearGradient>
	<path class="st9" d="M303.3,90.4h7.3v4.8c1.5-3.2,4.2-4.8,8.2-4.8c2.4,0,4.2,0.5,5.6,1.4l-2.8,7c-1.1-0.7-2.3-1.3-4.4-1.3
		c-4.3,0-6.6,2.3-6.6,7.8v17.1h-7.4V90.4z"/>
	<linearGradient id="SVGID_10_" gradientUnits="userSpaceOnUse" x1="342.0455" y1="146.4598" x2="342.0455" y2="95.3755">
		<stop  offset="0.4385" style="stop-color:#000000"/>
		<stop  offset="0.7799" style="stop-color:#858585"/>
		<stop  offset="0.9609" style="stop-color:#CECECE"/>
	</linearGradient>
	<path class="st10" d="M326.9,82h7.4v23.9l13.6-15.4h8.9l-12.4,13.8l12.8,18.2h-8.3l-9.6-13.8l-5.1,5.6v8.1h-7.4V82z"/>
	<linearGradient id="SVGID_11_" gradientUnits="userSpaceOnUse" x1="371.7145" y1="146.4896" x2="371.7145" y2="94.9796">
		<stop  offset="0.4385" style="stop-color:#000000"/>
		<stop  offset="0.7799" style="stop-color:#858585"/>
		<stop  offset="0.9609" style="stop-color:#CECECE"/>
	</linearGradient>
	<path class="st11" d="M355.2,106.5c0-9.4,7.3-16.7,16.6-16.7c9.5,0,16.5,7,16.5,16.5v2.8h-26c1,4.5,4.6,7.5,9.8,7.5
		c4.2,0,7.3-2.2,8.9-5.6l6.1,3.5c-2.8,5.2-7.7,8.6-14.9,8.6C362,123.1,355.2,115.8,355.2,106.5z M362.6,102.9h18.2
		c-1.1-4.3-4.4-6.6-9-6.6C367.4,96.3,363.9,98.9,362.6,102.9z"/>
	<linearGradient id="SVGID_12_" gradientUnits="userSpaceOnUse" x1="406.359" y1="145.7431" x2="406.359" y2="94.6495">
		<stop  offset="0.4385" style="stop-color:#000000"/>
		<stop  offset="0.7799" style="stop-color:#858585"/>
		<stop  offset="0.9609" style="stop-color:#CECECE"/>
	</linearGradient>
	<path class="st12" d="M391.5,82h7.4v12.3c2.2-2.8,5.5-4.5,9.6-4.5c8,0,12.7,5,12.7,13.7v19h-7.5v-18.2c0-5-2.4-8.1-7.2-8.1
		c-4.2,0-7.4,3.1-7.4,8.7v17.6h-7.4V82z"/>
	<linearGradient id="SVGID_13_" gradientUnits="userSpaceOnUse" x1="441.1129" y1="145.7205" x2="441.1129" y2="94.2028">
		<stop  offset="0.4385" style="stop-color:#000000"/>
		<stop  offset="0.7799" style="stop-color:#858585"/>
		<stop  offset="0.9609" style="stop-color:#CECECE"/>
	</linearGradient>
	<path class="st13" d="M424.4,106.5c0-10.6,7.8-16.7,15.9-16.7c4.2,0,7.9,1.7,10.3,4.5v-3.8h7.4v32h-7.4v-4.2
		c-2.4,3-6.2,4.8-10.4,4.8C432.4,123.1,424.4,117,424.4,106.5z M450.9,106.4c0-5.5-4-9.8-9.6-9.8c-5.5,0-9.7,4.3-9.7,9.8
		c0,5.6,4.2,10,9.7,10C446.8,116.3,450.9,111.9,450.9,106.4z"/>
	<linearGradient id="SVGID_14_" gradientUnits="userSpaceOnUse" x1="477.151" y1="145.0324" x2="477.151" y2="93.7415">
		<stop  offset="0.4385" style="stop-color:#000000"/>
		<stop  offset="0.7799" style="stop-color:#858585"/>
		<stop  offset="0.9609" style="stop-color:#CECECE"/>
	</linearGradient>
	<path class="st14" d="M462.4,90.4h7.3v3.9c2.1-2.8,5.4-4.6,9.6-4.6c8,0,12.7,5,12.7,13.7v19h-7.5v-18.2c0-5-2.4-8-7.2-8
		c-4.2,0-7.5,3.1-7.5,8.7v17.6h-7.4V90.4z"/>
</g>
<g id="layer2">
	<g id="g1506">
		<path id="rect2415-6-8" class="st15" d="M436.9,337h8.5c0.5,0,0.8,0.4,0.8,0.8v84.3c0,0.5-0.4,0.8-0.8,0.8h-8.5
			c-0.5,0-0.8-0.4-0.8-0.8v-84.3C436.1,337.3,436.5,337,436.9,337z"/>
		<path id="rect2415-6" class="st15" d="M86.3,319.5h8.5c0.5,0,0.8,0.4,0.8,0.8v52.1c0,0.5-0.4,0.8-0.8,0.8h-8.5
			c-0.5,0-0.8-0.4-0.8-0.8v-52.1C85.5,319.8,85.9,319.5,86.3,319.5L86.3,319.5z"/>
		<path id="rect2415-6-0" class="st15" d="M86.3,389.5h8.5c0.5,0,0.8,0.4,0.8,0.8v52.1c0,0.5-0.4,0.8-0.8,0.8h-8.5
			c-0.5,0-0.8-0.4-0.8-0.8v-52.1C85.5,389.9,85.9,389.5,86.3,389.5z"/>
		<path id="rect2415" class="st15" d="M86.3,266.3h8.5c0.4,0,0.8,0.4,0.8,0.8v26.3c0,0.4-0.4,0.8-0.8,0.8h-8.5
			c-0.4,0-0.8-0.4-0.8-0.8v-26.3C85.5,266.7,85.9,266.3,86.3,266.3z"/>
	</g>
	
		<linearGradient id="rect2415-4-9-9_1_" gradientUnits="userSpaceOnUse" x1="-2.7098" y1="860.6168" x2="-2.7098" y2="838.3574" gradientTransform="matrix(3.7795 0 0 -3.7795 451.4099 3590.75)">
		<stop  offset="0" style="stop-color:#81AACE"/>
		<stop  offset="0.1" style="stop-color:#B9D2E8"/>
		<stop  offset="0.9" style="stop-color:#B9D2E8"/>
		<stop  offset="1" style="stop-color:#81AACE"/>
	</linearGradient>
	<path id="rect2415-4-9-9" class="st16" d="M436.9,338h8.5c0.5,0,0.8,0.4,0.8,0.8v82.5c0,0.5-0.4,0.8-0.8,0.8h-8.5
		c-0.5,0-0.8-0.4-0.8-0.8v-82.5C436.1,338.4,436.5,338,436.9,338z"/>
	
		<linearGradient id="rect2415-4-9_1_" gradientUnits="userSpaceOnUse" x1="-2.7098" y1="860.6168" x2="-2.7098" y2="846.8865" gradientTransform="matrix(3.7795 0 0 -3.7795 100.8951 3573.2688)">
		<stop  offset="0" style="stop-color:#81AACE"/>
		<stop  offset="0.1" style="stop-color:#B9D2E8"/>
		<stop  offset="0.9" style="stop-color:#B9D2E8"/>
		<stop  offset="1" style="stop-color:#81AACE"/>
	</linearGradient>
	<path id="rect2415-4-9" class="st17" d="M86.4,320.5h8.5c0.5,0,0.8,0.4,0.8,0.8v50.3c0,0.5-0.4,0.8-0.8,0.8h-8.5
		c-0.5,0-0.8-0.4-0.8-0.8v-50.3C85.6,320.9,86,320.5,86.4,320.5L86.4,320.5z"/>
	
		<linearGradient id="rect2415-4-9-6_1_" gradientUnits="userSpaceOnUse" x1="-2.7098" y1="860.6168" x2="-2.7098" y2="846.8865" gradientTransform="matrix(3.7795 0 0 -3.7795 100.8051 3643.3057)">
		<stop  offset="0" style="stop-color:#81AACE"/>
		<stop  offset="0.1" style="stop-color:#B9D2E8"/>
		<stop  offset="0.9" style="stop-color:#B9D2E8"/>
		<stop  offset="1" style="stop-color:#81AACE"/>
	</linearGradient>
	<path id="rect2415-4-9-6" class="st18" d="M86.3,390.6h8.5c0.5,0,0.8,0.4,0.8,0.8v50.3c0,0.5-0.4,0.8-0.8,0.8h-8.5
		c-0.5,0-0.8-0.4-0.8-0.8v-50.3C85.5,390.9,85.9,390.6,86.3,390.6L86.3,390.6z"/>
	
		<linearGradient id="rect2415-4_1_" gradientUnits="userSpaceOnUse" x1="-2.7098" y1="860.6168" x2="-2.7098" y2="853.7098" gradientTransform="matrix(3.7795 0 0 -3.7795 100.8051 3520.0986)">
		<stop  offset="0" style="stop-color:#81AACE"/>
		<stop  offset="0.1" style="stop-color:#B9D2E8"/>
		<stop  offset="0.9" style="stop-color:#B9D2E8"/>
		<stop  offset="1" style="stop-color:#81AACE"/>
	</linearGradient>
	<path id="rect2415-4" class="st19" d="M86.3,267.4h8.5c0.4,0,0.8,0.4,0.8,0.8v24.5c0,0.4-0.4,0.8-0.8,0.8h-8.5
		c-0.4,0-0.8-0.4-0.8-0.8v-24.5C85.5,267.7,85.9,267.4,86.3,267.4z"/>
	<path id="rect2163" class="st20" d="M143.7,120.3h244.3c30.7,0,55.6,24.9,55.6,55.6v617c0,30.7-24.9,55.6-55.6,55.6H143.7
		c-30.7,0-55.6-24.9-55.6-55.6V176C88.1,145.2,113,120.3,143.7,120.3z"/>
	<g>
		<defs>
			<path id="SVGID_15_" d="M143.7,120.3h244.3c30.7,0,55.6,24.9,55.6,55.6v617c0,30.7-24.9,55.6-55.6,55.6H143.7
				c-30.7,0-55.6-24.9-55.6-55.6V176C88.1,145.2,113,120.3,143.7,120.3z"/>
		</defs>
		<clipPath id="SVGID_16_">
			<use xlink:href="#SVGID_15_"  style="overflow:visible;"/>
		</clipPath>
		<path id="rect2163-1" class="st21" d="M143.7,122.3c-29.8,0-53.7,23.9-53.7,53.7v617c0,29.8,23.9,53.7,53.7,53.7h244.3
			c29.8,0,53.7-23.9,53.7-53.7V176c0-29.8-23.9-53.7-53.7-53.7H143.7z"/>
	</g>
	<path id="rect2172" class="st22" d="M367.2,119.8v12h5v-12H367.2z M87.6,192.5v5h356.6v-5L87.6,192.5z M87.6,772.8v5h356.6v-5H87.6
		z M159.7,838.8v10.3h5v-10.3H159.7z"/>
	<rect id="rect1093" x="235.2" y="124.7" width="63.2" height="5"/>
	<path id="rect3540" class="st23" d="M144.7,124.9c-29.1,0-52.5,23.4-52.5,52.5v614.2c0,29.1,23.4,52.5,52.5,52.5h242.5
		c29.1,0,52.5-23.4,52.5-52.5V177.4c0-29.1-23.4-52.5-52.5-52.5h-88.7c-1.1,0-2.1,0.8-2.3,2v0.1h0h-58.6c-0.1-1.2-1.1-2.1-2.3-2.1
		H144.7z"/>
	<path id="rect1030" class="st24" d="M239.9,124.9h54c1.3,0,2.3,1,2.3,2.3v2.5c0,1.3-1,2.3-2.3,2.3h-54c-1.3,0-2.3-1-2.3-2.3v-2.5
		C237.5,125.9,238.6,124.9,239.9,124.9z"/>
	<g id="g2819" transform="translate(4.9056839,1.0604965)">
		<pattern  id="rect5261_1_" xlink:href="#pattern3129" patternTransform="matrix(0.769 0 0 -0.769 -1943.4777 -15191.7803)">
		</pattern>
		<path id="rect5261" class="st25" d="M236.3,125.3h51.3c1.2,0,2.1,0.9,2.1,2.1l0,0c0,1.2-0.9,2.1-2.1,2.1h-51.3
			c-1.2,0-2.1-0.9-2.1-2.1l0,0C234.2,126.2,235.2,125.3,236.3,125.3z"/>
		<path id="rect5261-0" class="st26" d="M236.3,125.3c-1.2,0-2.1,0.9-2.1,2.1c0,1.2,0.9,2.1,2.1,2.1h51.3c1.2,0,2.1-0.9,2.1-2.1
			c0-1.2-0.9-2.1-2.1-2.1H236.3z"/>
		<g>
			<defs>
				<path id="SVGID_17_" d="M236.3,125.2c-1.2,0-2.2,1-2.2,2.2c0,1.2,1,2.2,2.2,2.2h51.3c1.2,0,2.2-1,2.2-2.2c0-1.2-1-2.2-2.2-2.2
					H236.3z M236.3,125.4h51.3c1.1,0,2,0.9,2,2s-0.9,2-2,2h-51.3c-1.1,0-2-0.9-2-2S235.2,125.4,236.3,125.4z"/>
			</defs>
			<clipPath id="SVGID_18_">
				<use xlink:href="#SVGID_17_"  style="overflow:visible;"/>
			</clipPath>
			<g id="g2576" transform="translate(13.82448,-1.4319817)" class="st27">
				<path id="path999-2" class="st28" d="M275.9,128.8c0,0.4-0.2,0.7-0.5,0.7s-0.5-0.3-0.5-0.7s0.2-0.7,0.5-0.7
					C275.7,128.2,275.9,128.4,275.9,128.8z"/>
				<path id="path999-2-2" class="st28" d="M220.4,128.8c0,0.4,0.2,0.7,0.5,0.7s0.5-0.3,0.5-0.7c0-0.4-0.2-0.7-0.5-0.7
					S220.4,128.4,220.4,128.8z"/>
			</g>
		</g>
	</g>
	<g id="g2170" transform="matrix(0.86611782,0,0,0.86611782,75.937463,1.8588713)">
		<circle id="path5263" class="st29" cx="166.3" cy="166.5" r="6.6"/>
		<circle id="path5265" class="st30" cx="166.3" cy="166.5" r="4.1"/>
		<circle id="path5267" class="st31" cx="166.3" cy="166.5" r="3.1"/>
		<path id="path5271" class="st32" d="M164.1,164.4c-0.4,0-0.9,0.6-0.9,1.7c0,1.1,0.4,1.7,0.7,1.7
			C164.2,167.8,165.3,166.2,164.1,164.4L164.1,164.4z"/>
		<path id="path5273" class="st32" d="M166.8,164c-0.6,0.2-0.7,1.1-0.7,1.7c0,0.5,0.8,1.9,1.7,1.6s1.1-1.5,0.7-2.3
			C168.1,164.3,167.4,163.7,166.8,164z"/>
	</g>
</g>
<g>
	<g>
		<path class="st33" d="M199.5,879.8c-25.1,0-45.4,20.3-45.4,45.4c0,20.1,13,37.1,31.1,43.1c2.3,0.4,3.1-1,3.1-2.2
			c0-1.1,0-4.7-0.1-8.5c-12.6,2.7-15.3-5.4-15.3-5.4c-2.1-5.2-5-6.6-5-6.6c-4.1-2.8,0.3-2.8,0.3-2.8c4.6,0.3,7,4.7,7,4.7
			c4.1,6.9,10.6,4.9,13.2,3.8c0.4-2.9,1.6-4.9,2.9-6.1c-10.1-1.1-20.7-5-20.7-22.4c0-5,1.8-9,4.7-12.2c-0.5-1.1-2-5.8,0.4-12
			c0,0,3.8-1.2,12.5,4.7c3.6-1,7.5-1.5,11.4-1.5c3.9,0,7.7,0.5,11.4,1.5c8.7-5.9,12.5-4.7,12.5-4.7c2.5,6.3,0.9,10.9,0.4,12
			c2.9,3.2,4.7,7.2,4.7,12.2c0,17.4-10.6,21.3-20.7,22.4c1.6,1.4,3.1,4.2,3.1,8.4c0,6.1-0.1,11-0.1,12.5c0,1.2,0.8,2.6,3.1,2.2
			c18-6,31-23,31-43.1C244.9,900.1,224.6,879.8,199.5,879.8z"/>
		<path class="st28" d="M171.3,945c-0.1,0.2-0.5,0.3-0.8,0.1c-0.3-0.1-0.5-0.5-0.4-0.7c0.1-0.2,0.5-0.3,0.8-0.1
			C171.2,944.5,171.4,944.8,171.3,945L171.3,945z M170.7,944.6"/>
		<path class="st28" d="M173.1,947.1c-0.2,0.2-0.6,0.1-0.9-0.2c-0.3-0.3-0.4-0.7-0.1-0.9c0.2-0.2,0.6-0.1,0.9,0.2
			C173.3,946.4,173.4,946.9,173.1,947.1L173.1,947.1z M172.7,946.6"/>
		<path class="st28" d="M174.9,949.7c-0.3,0.2-0.7,0-1-0.4c-0.3-0.4-0.3-0.9,0-1.1c0.3-0.2,0.7,0,1,0.4
			C175.2,949,175.2,949.5,174.9,949.7L174.9,949.7z M174.9,949.7"/>
		<path class="st28" d="M177.4,952.2c-0.2,0.3-0.8,0.2-1.2-0.2c-0.4-0.4-0.5-0.9-0.3-1.2c0.3-0.3,0.8-0.2,1.2,0.2
			C177.5,951.4,177.6,951.9,177.4,952.2L177.4,952.2z M177.4,952.2"/>
		<path class="st28" d="M180.8,953.7c-0.1,0.4-0.6,0.5-1.1,0.4c-0.5-0.2-0.8-0.6-0.7-0.9c0.1-0.4,0.6-0.5,1.1-0.4
			C180.5,952.9,180.9,953.3,180.8,953.7L180.8,953.7z M180.8,953.7"/>
		<path class="st28" d="M184.5,953.9c0,0.4-0.4,0.7-1,0.7c-0.5,0-1-0.3-1-0.7c0-0.4,0.4-0.7,1-0.7
			C184,953.3,184.5,953.6,184.5,953.9L184.5,953.9z M184.5,953.9"/>
		<path class="st28" d="M187.9,953.3c0.1,0.4-0.3,0.7-0.8,0.8c-0.5,0.1-1-0.1-1.1-0.5c-0.1-0.4,0.3-0.7,0.8-0.8
			C187.4,952.8,187.9,953,187.9,953.3L187.9,953.3z M187.9,953.3"/>
	</g>
	<path class="st28" d="M375.3,910c-0.5,0.4-9.6,5.5-9.6,16.9c0,13.1,11.5,17.8,11.9,17.9c-0.1,0.3-1.8,6.4-6.1,12.6
		c-3.8,5.5-7.8,10.9-13.8,10.9s-7.6-3.5-14.5-3.5c-6.8,0-9.2,3.6-14.7,3.6s-9.4-5.1-13.8-11.3c-5.1-7.3-9.3-18.6-9.3-29.3
		c0-17.2,11.2-26.4,22.2-26.4c5.9,0,10.7,3.8,14.4,3.8c3.5,0,9-4.1,15.6-4.1C360.3,901.2,369.4,901.4,375.3,910L375.3,910z
		 M354.6,893.9c2.8-3.3,4.7-7.8,4.7-12.3c0-0.6-0.1-1.3-0.2-1.8c-4.5,0.2-9.8,3-13,6.7c-2.5,2.9-4.9,7.4-4.9,12
		c0,0.7,0.1,1.4,0.2,1.6c0.3,0.1,0.7,0.1,1.2,0.1C346.6,900.2,351.7,897.5,354.6,893.9L354.6,893.9z"/>
</g>
</svg>
